<svg width="573" height="221" viewBox="0 0 573 221" fill="none" xmlns="http://www.w3.org/2000/svg">
<rect x="0.614619" y="1.06579" width="571.771" height="219.063" rx="109.531" fill="#8914FF"/>
<rect x="0.614619" y="1.06579" width="571.771" height="219.063" rx="109.531" stroke="#F4F4F4" stroke-width="1.22924"/>
<path d="M262.748 146.211L282.589 72.8506H318.085L337.926 146.211H318.085L314.444 131.548H286.23L282.589 146.211H262.748ZM290.416 114.784H310.258L303.978 90.6654H299.927H296.696L290.416 114.784Z" fill="#F4F4F4"/>
<path d="M76.7617 116.924V72.8896H96.1023V116.376C96.1023 120.761 97.331 124.233 99.7429 126.745C102.155 129.257 105.477 130.536 109.663 130.536C113.85 130.536 117.127 129.257 119.584 126.745C121.996 124.233 123.225 120.761 123.225 116.376V72.8896H142.565V116.924C142.565 126.425 139.607 134.054 133.691 139.764C127.775 145.474 119.766 148.351 109.663 148.351C99.5608 148.351 91.5516 145.474 85.6356 139.764C79.7197 134.054 76.7617 126.425 76.7617 116.924Z" fill="#F4F4F4"/>
<path d="M161.625 146.25V72.8896H188.793L205.175 113.407L221.694 72.8896H248.862V146.25H229.522L230.068 94.9069L215.961 131.496H194.572L180.601 94.9069L181.011 146.25H161.625Z" fill="#F4F4F4"/>
<path d="M351.766 146.25V72.8896H371.061V146.25H351.766Z" fill="#F4F4F4"/>
<path d="M390.16 146.25V72.8896H413.642L439.217 119.025L438.671 72.8896H457.966V146.25H434.484L408.955 100.16L409.501 146.296H390.16V146.25Z" fill="#F4F4F4"/>
<path d="M496.248 72.8896H477.135V92.0748H496.248V72.8896Z" fill="#F4F4F4"/>
</svg>
