<svg width="514" height="308" viewBox="0 0 514 308" fill="none" xmlns="http://www.w3.org/2000/svg">
<path d="M468.825 213.605L89.2844 297.258C64.7858 302.657 40.5477 287.174 35.1481 262.675L9.77696 147.563C4.37736 123.064 19.8607 98.8262 44.3593 93.4267L423.889 9.77675C448.388 4.37716 472.626 19.8604 478.026 44.3591L503.397 159.471C508.797 183.97 493.313 208.208 468.815 213.608" fill="#FF450F"/>
<path d="M54.4175 162.472C50.2916 143.753 59.3862 129.628 74.8497 126.22C89.0149 123.098 99.9286 128.882 103.785 141.349L92.3104 143.878C89.9915 137.989 84.8722 134.934 77.711 136.513C67.6184 138.737 63.8568 148.019 66.4574 159.819C69.058 171.618 76.4978 179.024 86.5904 176.799C94.3273 175.094 96.9896 169.392 96.6693 163.655L108.06 161.144C110.01 174.624 102.235 184.274 88.1535 187.378C72.69 190.786 58.5595 181.265 54.4175 162.472Z" fill="white"/>
<path d="M158.434 159.265L160.677 169.441L117.7 178.914L104.928 120.965L147.088 111.672L149.331 121.849L119.211 128.488L121.973 141.02L149.078 135.045L151.356 145.379L124.25 151.353L127.497 166.084L158.424 159.267L158.434 159.265Z" fill="white"/>
<path d="M206.022 140.158L212.432 158.034L200.057 160.761L195.392 146.168C193.806 141.314 191.2 139.154 184.929 140.537L174.271 142.886L179.223 165.353L167.173 168.009L154.4 110.061L181.422 104.105C195.263 101.054 201.439 107.806 203.25 116.025C204.881 123.426 202.276 129.04 195.306 132.629C202.363 132.522 204.677 136.448 206.014 140.171L206.022 140.158ZM183.687 130.568C190.932 128.971 192.804 124.716 191.819 120.246C190.887 116.016 187.814 113.279 181.867 114.59L168.686 117.495L172.131 133.126L183.689 130.578L183.687 130.568Z" fill="white"/>
<path d="M251.034 100.025L233.697 103.846L244.101 151.053L232.051 153.709L221.646 106.502L204.225 110.342L201.857 99.6001L248.656 89.2855L251.024 100.027L251.034 100.025Z" fill="white"/>
<path d="M253.627 88.1875L265.677 85.5315L278.449 143.48L266.399 146.136L253.627 88.1875Z" fill="white"/>
<path d="M288.641 91.7357L291.387 104.194L316.618 98.6333L318.986 109.375L293.754 114.936L299.045 138.943L286.995 141.599L274.223 83.6499L315.158 74.6275L317.526 85.3692L288.63 91.738L288.641 91.7357Z" fill="white"/>
<path d="M318.828 73.8188L330.879 71.1629L343.651 129.112L331.6 131.768L318.828 73.8188Z" fill="white"/>
<path d="M392.938 107.579L395.181 117.755L352.204 127.228L339.432 69.2788L381.592 59.9864L383.835 70.1628L353.714 76.8015L356.477 89.3335L383.582 83.3594L385.86 93.6928L358.754 99.6669L362.001 114.398L392.928 107.581L392.938 107.579Z" fill="white"/>
<path d="M444.135 76.5784C448.046 94.3243 442.303 107.369 424.641 111.262L401.692 116.32L388.92 58.3716L410.246 53.6712C429.531 49.4207 440.146 58.4325 444.147 76.5866L444.135 76.5784ZM432.095 79.2321C429.153 65.8835 424.039 60.8628 410.847 63.7703L403.11 65.4755L411.489 103.49L420.849 101.427C432.407 98.8799 434.955 92.2585 432.084 79.2344L432.095 79.2321Z" fill="white"/>
<path d="M74.2744 240.971L65.4297 200.841L77.4801 198.185L86.3594 238.472C87.7232 244.66 91.7928 246.836 98.8702 245.277C105.948 243.717 108.641 240.049 107.278 233.862L98.3982 193.575L110.449 190.919L119.293 231.049C122.092 243.748 115.248 252.59 101.093 255.71C86.9381 258.83 77.0816 253.658 74.2849 240.969L74.2744 240.971Z" fill="white"/>
<path d="M175.968 176.485L188.74 234.433L177.506 236.909L172.716 215.175L167.854 186.54L167.723 204.924L166.43 239.351L154.138 242.06L138.21 210.836L130.472 194.702L138.114 222.801L142.905 244.536L131.755 246.993L118.982 189.044L135.912 185.313L152.446 217.348L157.349 228.387L157.409 216.254L158.777 180.274L175.947 176.489L175.968 176.485Z" fill="white"/>
<path d="M229.142 212.891L208.14 217.52L206.891 230.431L194.108 233.249L201.846 170.779L215.76 167.713L248.55 221.249L235.693 224.083L229.132 212.893L229.142 212.891ZM223.783 203.665L219.849 197.023L211.292 181.41L210.007 199.192L209.23 206.873L223.803 203.661L223.783 203.665Z" fill="white"/>
<path d="M241.166 162.116L253.216 159.46L265.989 217.409L253.938 220.065L241.166 162.116Z" fill="white"/>
<path d="M308.652 147.24L321.424 205.188L309.625 207.789L278.477 175.649L286.676 212.847L274.626 215.503L261.854 157.554L273.653 154.954L304.8 187.094L296.602 149.896L308.652 147.24Z" fill="white"/>
<path d="M317.275 145.34L329.326 142.684L342.098 200.633L330.048 203.289L317.275 145.34Z" fill="white"/>
<path d="M382.41 179.115L361.408 183.744L360.159 196.655L347.376 199.472L355.113 137.003L369.027 133.936L401.817 187.473L388.961 190.307L382.399 179.117L382.41 179.115ZM377.05 169.889L373.116 163.247L364.559 147.634L363.275 165.416L362.498 173.096L377.071 169.884L377.05 169.889Z" fill="white"/>
<path d="M396.748 158.202C392.622 139.482 401.716 125.358 417.18 121.95C431.345 118.828 442.259 124.612 446.115 137.078L434.641 139.607C432.322 133.718 427.202 130.664 420.041 132.242C409.949 134.467 406.187 143.749 408.787 155.548C411.388 167.347 418.828 174.753 428.92 172.529C436.657 170.824 439.32 165.121 438.999 159.384L450.39 156.874C452.34 170.353 444.565 180.004 430.484 183.108C415.02 186.516 400.89 176.994 396.748 158.202Z" fill="white"/>
</svg>
